# xmcd
#
# Track frame offsets:
#	150
#	5922
#	20122
#	33629
#	48123
#	62293
#	77007
#	85678
#	100725
#	121508
#	141342
#	157317
#	168141
#	176317
#	184456
#	192306
#	200725
#	206650
#	212305
#	218260
#	224944
#	239151
#	243736
#	247362
#	251094
#	257980
#	262655
#	265893
#	271452
#	279431
#	284828
#	296289
#	304019
#	310014
#	316883
#	321732
#	330870
#	339838
#
# Disc length: 4631 seconds
#
# Revision: 0
# Processed by: cddbd v1.5.2PL0 Copyright (c) Steve Scherf et al.
# Submitted via: EZCDAudioConverter 1.0.4.1
#
DISCID=47121526
DTITLE=Los Palmeras - La fiesta en vivo
DYEAR=2006
DGENRE=
TTITLE0=Intro - Los piropos
TTITLE1=El bombón
TTITLE2=Te va a gustar
TTITLE3=La bestia pop
TTITLE4=Así es que vivo yo
TTITLE5=Ahí van camino hacia el altar
TTITLE6=Que pasará mañana
TTITLE7=Dame un beso
TTITLE8=Doble vida
TTITLE9=Ahora quien
TTITLE10=Así no te amará jamás
TTITLE11=Así es la vida
TTITLE12=Soy un titeré
TTITLE13=Esa pareja
TTITLE14=Quererte como te quiero
TTITLE15=Mil años
TTITLE16=Las horas que nos separan
TTITLE17=Veneno de amor
TTITLE18=Dónde quieras que estés
TTITLE19=Basta de orgullo
TTITLE20=La suavecita
TTITLE21=Adorada Sandra
TTITLE22=Corazón no me preguntes
TTITLE23=La noche en tu pelo
TTITLE24=El amor en mi Bohío
TTITLE25=Se llama Marcela
TTITLE26=Eres mentirosa
TTITLE27=Cumbia y luna
TTITLE28=Entre la espada y la pared
TTITLE29=Tormenta de verano
TTITLE30=Muchacha triste
TTITLE31=Tan bella y tan presumida
TTITLE32=Juan Valdez
TTITLE33=Cumbia cuéntale
TTITLE34=Con el alma enamorada
TTITLE35=Mujer que mal me pagas
TTITLE36=El bombón
TTITLE37=Te va a gustar
EXTD=
EXTT0=
EXTT1=
EXTT2=
EXTT3=
EXTT4=
EXTT5=
EXTT6=
EXTT7=
EXTT8=
EXTT9=
EXTT10=
EXTT11=
EXTT12=
EXTT13=
EXTT14=
EXTT15=
EXTT16=
EXTT17=
EXTT18=
EXTT19=
EXTT20=
EXTT21=
EXTT22=
EXTT23=
EXTT24=
EXTT25=
EXTT26=
EXTT27=
EXTT28=
EXTT29=
EXTT30=
EXTT31=
EXTT32=
EXTT33=
EXTT34=
EXTT35=
EXTT36=
EXTT37=
PLAYORDER=
